<?xml version="1.0" encoding="utf-8"?>
<!-- Generator: Adobe Illustrator 16.0.0, SVG Export Plug-In . SVG Version: 6.00 Build 0)  -->
<!DOCTYPE svg PUBLIC "-//W3C//DTD SVG 1.1//EN" "http://www.w3.org/Graphics/SVG/1.1/DTD/svg11.dtd">
<svg version="1.1" id="圖層_1" xmlns="http://www.w3.org/2000/svg" xmlns:xlink="http://www.w3.org/1999/xlink" x="0px" y="0px"
	 viewBox="75 210 420 430" xml:space="preserve">
<path fill-rule="evenodd" clip-rule="evenodd" fill="#FAA85B" d="M171.5,288.65c0.11,0.6,0.15,1.11,0.3,1.58
	c0.81,2.74,2.74,4.11,5.15,3.73c2.52-0.4,3.89-2.18,3.85-5.05c0-0.62-0.17-1.23-0.19-1.85c-0.21-5.77,0.07-11.45,2.6-16.77
	c2.29-4.84,5.54-8.69,10.28-11.22c3.13-1.68,3.98-4.44,2.48-7.13c-1.3-2.32-4.13-2.85-7.1-1.11c-1.79,1.04-3.54,2.23-5.07,3.62
	C173.71,263.61,170.23,275.3,171.5,288.65z M156.53,300c-3.04-14.84-2.11-28.09,3.5-40.75c9.36-21.14,30.13-31.03,50.87-26.22
	c13.87,3.21,25.08,10.69,34.2,21.48c10.41,12.31,17.16,26.5,19.44,42.64c1.97,13.93,0.53,27.36-6.05,39.92
	c-9.67,18.44-29.2,27.13-49.01,22.66c-18.88-4.25-32.38-16.15-42.43-32.45C161.65,318.52,157.84,309.05,156.53,300z"/>
<path fill-rule="evenodd" clip-rule="evenodd" fill="#6BA8D3" d="M331.2,229.77c-11.72,2.46-19.35,9.32-24.1,19.75
	c-0.36,0.77-0.57,1.65-0.69,2.5c-0.32,2.28,1.14,4.56,3.26,5.2c2.09,0.64,4.06-0.22,5.18-2.31c0.41-0.76,0.69-1.59,1.07-2.37
	c2.94-6.03,7.34-10.45,13.72-12.56c1.94-0.64,4-1.01,6.04-1.27c3.1-0.38,5.11-2.16,5.05-4.75c-0.07-2.7-1.91-4.33-5.25-4.44
	C333.9,229.46,332.32,229.7,331.2,229.77z M286.75,291.81c-3.06-18.13-1.55-34.21,5.76-49.51c4.84-10.11,11.9-18.26,21.64-23.58
	c13.48-7.36,27.35-7.67,41.22-0.63c10.62,5.39,18.04,14.05,23.6,24.52c8.16,15.41,10.8,31.86,8.23,48.93
	c-2.39,15.93-8.67,30.03-21.24,40.52c-14.33,11.96-33.47,13.52-49.79,4.11c-11.12-6.41-18.7-16-23.98-27.64
	c-1.08-2.38-2.11-4.8-2.88-7.29C288.2,297.67,287.34,294.03,286.75,291.81z"/>
<path fill-rule="evenodd" clip-rule="evenodd" fill="#90D4DB" d="M100.06,394.6c0.24,1.35,0.33,2.75,0.76,4.04
	c0.74,2.2,3.14,3.57,5.25,3.22c2.08-0.35,3.71-2.49,3.62-4.93c-0.03-0.86-0.41-1.69-0.52-2.55c-1.29-9.49,0.33-17.89,8.48-23.85
	c0.39-0.29,0.77-0.62,1.09-0.98c1.62-1.88,1.71-4.32,0.24-6.15c-1.47-1.82-3.88-2.28-5.96-1.07c-0.73,0.43-1.43,0.96-2.07,1.53
	C101.79,372.03,98.11,382.28,100.06,394.6z M188.17,398.15c2.04,11.67,1.29,22.43-3.01,32.85c-6.11,14.83-21.41,25.25-37.17,25.35
	c-19.34,0.13-34.8-8.1-47.27-22.82c-9.51-11.23-15.39-24.15-16.51-38.94c-1.45-19.09,4.59-34.94,20.89-45.47
	c8.78-5.68,18.73-7.22,28.97-5.56c23.87,3.88,39.77,18.24,49.67,40.16c1.08,2.38,1.98,4.86,2.74,7.37
	C187.23,393.59,187.71,396.18,188.17,398.15z"/>
<path fill-rule="evenodd" clip-rule="evenodd" fill="#F8B1B8" d="M437.56,309.99c-10.12,2.11-16.89,6.58-21.56,14.11
	c-1.53,2.46-1.08,4.78,0.92,6.3c2.22,1.68,4.47,1.33,6.39-1.02c1.02-1.23,1.9-2.6,3.02-3.72c5.13-5.12,11.27-7.06,18.44-5.96
	c2.84,0.44,4.97-1.24,5.37-3.77c0.43-2.67-0.93-4.78-3.96-5.26C442.84,310.14,439.42,310.12,437.56,309.99z M391.99,362.38
	c-1.87-13.08,0.53-29.74,10.23-44.81c5.96-9.26,13.72-16.5,24.21-20.18c15.93-5.59,30.29-2.52,42.42,9.46
	c9.84,9.72,14.72,22.11,15.87,35.82c1.3,15.48-1.84,30.06-10.21,43.13c-6.8,10.63-15.82,18.64-28.18,21.83
	c-16.19,4.18-30.04-0.15-41.13-13.09C398.43,386.65,394.73,378.17,391.99,362.38z"/>
<path fill-rule="evenodd" clip-rule="evenodd" fill="#90D4DB" d="M283.84,351.25c-40.23,5.8-83.4,47.33-72.86,105.79
	c8.59,47.64,54.85,82.21,105.22,72.83c52.71-9.82,81.73-57.85,72.76-105.62C378.89,370.7,326.8,342.02,283.84,351.25z"/>
<path fill-rule="evenodd" clip-rule="evenodd" fill="#FFFFFF" d="M268.79,376.34c5.31-0.91,10.18,1.56,11.13,5.65
	c0.87,3.77-1.74,7.97-6.84,9.19c-12.47,2.98-19.02,10.72-21.54,22.4c-1.11,5.18-4.71,7.51-9.14,6.81c-4.63-0.73-6.95-4.4-6.45-10.22
	C237.29,394.8,252.51,379.13,268.79,376.34z"/>
<path fill-rule="evenodd" clip-rule="evenodd" fill="#90D4DB" d="M244.06,448.84c-40.22,5.8-83.4,47.33-72.86,105.79
	c8.59,47.64,54.86,82.21,105.22,72.83c52.71-9.82,81.74-57.85,72.76-105.62C339.12,468.29,287.03,439.61,244.06,448.84z"/>
<path fill-rule="evenodd" clip-rule="evenodd" fill="#6BA8D3" d="M376.65,422.22c-40.23,5.8-83.4,47.34-72.86,105.8
	c8.59,47.63,54.85,82.2,105.22,72.82c52.71-9.81,81.73-57.84,72.76-105.61C471.71,441.68,419.61,412.99,376.65,422.22z"/>
<path fill-rule="evenodd" clip-rule="evenodd" fill="#FFFFFF" d="M224.59,478.37c5.32-0.91,10.19,1.56,11.13,5.64
	c0.87,3.77-1.74,7.98-6.84,9.2c-12.47,2.98-19.01,10.71-21.53,22.39c-1.12,5.19-4.71,7.52-9.15,6.82
	c-4.63-0.74-6.95-4.41-6.44-10.23C193.1,496.82,208.31,481.15,224.59,478.37z"/>
<path fill-rule="evenodd" clip-rule="evenodd" fill="#FFFFFF" d="M366.02,447.32c5.31-0.91,10.18,1.56,11.13,5.64
	c0.87,3.77-1.74,7.97-6.84,9.19c-12.47,2.99-19.02,10.72-21.53,22.4c-1.12,5.18-4.71,7.52-9.15,6.81c-4.63-0.73-6.95-4.4-6.44-10.22
	C334.52,465.77,349.74,450.1,366.02,447.32z"/>
</svg>
